# xmcd
#
# Track frame offsets: 
#        150
#        37028
#        65705
#        94079
#        141490
#        167475
#        203209
#        239062
#        263440
#
# Disc length: 3913 seconds
#
# Revision: 0
# Processed by: cddbd v1.5.1PL2 Copyright (c) Steve Scherf et al.
# Submitted via: ExactAudioCopy v0.95b2
#
DISCID=840f4709
DTITLE=Various Artist - Live At The Ivy Room [CD1]
DYEAR=2004
DGENRE=Blues
TTITLE0=01_You Don't Have To Go
TTITLE1=02_16 Bar
TTITLE2=03_Every Day I Have The Blues
TTITLE3=04_Sweet Little Angel
TTITLE4=05_Piano Swing
TTITLE5=06_12 Bar Jazz
TTITLE6=07_Somthin You Got
TTITLE7=08_Rock Me
TTITLE8=09_Sweet Home Chicago
EXTD=
EXTT0=
EXTT1=
EXTT2=
EXTT3=
EXTT4=
EXTT5=
EXTT6=
EXTT7=
EXTT8=
PLAYORDER=
